<svg width="44" height="44" viewBox="0 0 44 44" fill="none" xmlns="http://www.w3.org/2000/svg">
<path d="M36.6666 22H19.25M33 27.5L38.5 22L33 16.5M23.8333 12.8333V11C23.8333 10.0275 23.447 9.09492 22.7594 8.40729C22.0717 7.71965 21.1391 7.33334 20.1666 7.33334H11C10.0275 7.33334 9.09489 7.71965 8.40725 8.40729C7.71962 9.09492 7.33331 10.0275 7.33331 11V33C7.33331 33.9725 7.71962 34.9051 8.40725 35.5927C9.09489 36.2804 10.0275 36.6667 11 36.6667H20.1666C21.1391 36.6667 22.0717 36.2804 22.7594 35.5927C23.447 34.9051 23.8333 33.9725 23.8333 33V31.1667" stroke="white" stroke-opacity="0.58" stroke-width="3" stroke-linecap="round" stroke-linejoin="round"/>
</svg>
