<svg width="37" height="32" viewBox="0 0 37 32" fill="none" xmlns="http://www.w3.org/2000/svg">
<path d="M0.917314 30.8204C0.409971 30.3088 0.1563 29.6577 0.1563 28.8671C0.1563 28.0765 0.409971 27.4254 0.917314 26.9138L11.6407 16.0312L0.917314 5.14867C0.409971 4.6371 0.144308 3.9981 0.120325 3.23167C0.0963414 2.46523 0.362004 1.80205 0.917314 1.24211C1.42466 0.730533 2.07037 0.474747 2.85444 0.474747C3.63852 0.474747 4.28423 0.730533 4.79157 1.24211L17.5213 14.078C17.798 14.357 17.9945 14.6593 18.1107 14.9848C18.2269 15.3104 18.2841 15.6592 18.2823 16.0312C18.2823 16.4033 18.2251 16.7521 18.1107 17.0776C17.9963 17.4032 17.7999 17.7055 17.5213 17.9845L4.79157 30.8204C4.28423 31.332 3.65051 31.5998 2.89042 31.624C2.13033 31.6482 1.47262 31.3803 0.917314 30.8204ZM19.1817 30.8204C18.6743 30.3088 18.4207 29.6577 18.4207 28.8671C18.4207 28.0765 18.6743 27.4254 19.1817 26.9138L29.9051 16.0312L19.1817 5.14867C18.6743 4.6371 18.4087 3.9981 18.3847 3.23167C18.3607 2.46523 18.6264 1.80205 19.1817 1.24211C19.689 0.730533 20.3347 0.474747 21.1188 0.474747C21.9029 0.474747 22.5486 0.730533 23.0559 1.24211L35.7856 14.078C36.0624 14.357 36.2589 14.6593 36.3751 14.9848C36.4913 15.3104 36.5485 15.6592 36.5467 16.0312C36.5467 16.4033 36.4885 16.7521 36.3723 17.0776C36.2561 17.4032 36.0605 17.7055 35.7856 17.9845L23.0559 30.8204C22.5486 31.332 21.9149 31.5998 21.1548 31.624C20.3947 31.6482 19.737 31.3803 19.1817 30.8204Z" fill="white"/>
</svg>
