<svg width="49" height="48" viewBox="0 0 49 48" fill="none" xmlns="http://www.w3.org/2000/svg">
<path d="M36.6389 45.0208H12.5094C9.94955 45.0208 7.49457 44.0055 5.6845 42.1984C3.87443 40.3912 2.85754 37.9402 2.85754 35.3845V20.2267C2.85751 18.5698 3.2854 16.9409 4.0999 15.4972C4.9144 14.0536 6.08798 12.844 7.50731 11.9853L19.5721 4.68585C21.0805 3.77329 22.8105 3.2908 24.5742 3.2908C26.3379 3.2908 28.0679 3.77329 29.5762 4.68585L41.641 11.9853C43.06 12.8438 44.2334 14.053 45.0478 15.4962C45.8623 16.9394 46.2904 18.5678 46.2908 20.2243V35.3845C46.2908 37.9402 45.2739 40.3912 43.4638 42.1984C41.6538 44.0055 39.1988 45.0208 36.6389 45.0208ZM17.3353 35.3845H31.813Z" fill="#3A329E" fill-opacity="0.8"/>
<path d="M17.3353 35.3845H31.813M36.6389 45.0208H12.5094C9.94955 45.0208 7.49457 44.0055 5.6845 42.1984C3.87443 40.3912 2.85754 37.9402 2.85754 35.3845V20.2267C2.85751 18.5698 3.2854 16.9409 4.0999 15.4972C4.9144 14.0536 6.08798 12.844 7.50731 11.9853L19.5721 4.68585C21.0805 3.77329 22.8105 3.2908 24.5742 3.2908C26.3379 3.2908 28.0679 3.77329 29.5762 4.68585L41.641 11.9853C43.06 12.8438 44.2334 14.053 45.0478 15.4962C45.8623 16.9394 46.2904 18.5678 46.2908 20.2243V35.3845C46.2908 37.9402 45.2739 40.3912 43.4638 42.1984C41.6538 44.0055 39.1988 45.0208 36.6389 45.0208Z" stroke="white" stroke-width="5" stroke-linecap="round" stroke-linejoin="round"/>
</svg>
