<svg width="49" height="48" viewBox="0 0 49 48" fill="none" xmlns="http://www.w3.org/2000/svg">
<path d="M3.94337 23.6958H11.2879C12.7759 23.6958 14.1362 24.7055 14.8017 26.304C15.4672 27.9024 16.8275 28.9121 18.3155 28.9121H30.8328C32.3209 28.9121 33.6812 27.9024 34.3466 26.304C35.0121 24.7055 36.3724 23.6958 37.8605 23.6958H45.205M17.9866 2.83085H31.1618C33.5004 2.83085 34.6697 2.83085 35.702 3.25849C36.6149 3.63666 37.4464 4.25383 38.1363 5.06535C38.9165 5.98302 39.4394 7.2391 40.4852 9.75118L45.1903 21.0525C45.6007 22.0383 45.8059 22.5313 45.9507 23.0478C46.0792 23.5066 46.172 23.9787 46.2279 24.4581C46.2908 24.9979 46.2908 25.549 46.2908 26.6512V32.0418C46.2908 36.4239 46.2908 38.6149 45.5807 40.2886C44.9561 41.7609 43.9594 42.9579 42.7335 43.708C41.3399 44.5608 39.5155 44.5608 35.8668 44.5608H13.2815C9.63279 44.5608 7.80842 44.5608 6.41479 43.708C5.18891 42.9579 4.19225 41.7609 3.56763 40.2886C2.85754 38.6149 2.85754 36.4239 2.85754 32.0418V26.6512C2.85754 25.549 2.85754 24.9979 2.92047 24.4581C2.97635 23.9787 3.06915 23.5066 3.19767 23.0478C3.34239 22.5313 3.54761 22.0383 3.95803 21.0525L8.66308 9.75117C9.70893 7.23908 10.2319 5.98302 11.012 5.06535C11.7019 4.25383 12.5334 3.63666 13.4463 3.25849C14.4787 2.83085 15.648 2.83085 17.9866 2.83085Z" stroke="white" stroke-width="5" stroke-linecap="round" stroke-linejoin="round"/>
</svg>
